<svg width="44.459961" height="44.459961" viewBox="0 0 44.46 44.46" fill="none" xmlns="http://www.w3.org/2000/svg" xmlns:xlink="http://www.w3.org/1999/xlink">
	<desc>
			Created with Pixso.
	</desc>
	<defs>
		<clipPath id="clip34_67">
			<rect id="circum:gift" width="44.459999" height="44.459999" fill="white" fill-opacity="0"/>
		</clipPath>
	</defs>
	<rect id="circum:gift" width="44.459999" height="44.459999" fill="#FFFFFF" fill-opacity="0"/>
	<g clip-path="url(#clip34_67)">
		<path id="Vector" d="M36 10.31L31.59 10.31C31.76 9.69 31.76 9.03 31.6 8.4C31.43 7.78 31.1 7.21 30.64 6.75C29.94 6.07 29 5.68 28.02 5.68C27.04 5.68 26.1 6.07 25.4 6.75L22.23 9.94L19.06 6.75C18.71 6.41 18.3 6.13 17.85 5.95C17.4 5.76 16.92 5.67 16.44 5.67C15.95 5.67 15.47 5.76 15.02 5.95C14.57 6.13 14.16 6.41 13.81 6.75C13.36 7.21 13.03 7.78 12.86 8.4C12.7 9.03 12.7 9.69 12.87 10.31L8.45 10.31C7.71 10.31 7.01 10.6 6.49 11.12C5.97 11.64 5.67 12.35 5.67 13.09L5.67 14.94C5.67 15.49 5.84 16.03 6.15 16.48C6.46 16.94 6.89 17.29 7.41 17.5L7.41 34.15C7.41 35.38 7.9 36.55 8.77 37.42C9.63 38.29 10.81 38.78 12.04 38.78L32.41 38.78C33.64 38.78 34.82 38.29 35.69 37.43C36.56 36.56 37.05 35.38 37.05 34.15L37.05 17.52C37.56 17.31 38 16.95 38.31 16.49C38.62 16.03 38.78 15.49 38.79 14.94L38.79 13.09C38.79 12.72 38.71 12.36 38.57 12.02C38.43 11.68 38.23 11.38 37.97 11.12C37.71 10.86 37.4 10.66 37.06 10.52C36.73 10.38 36.36 10.31 36 10.31ZM15.12 8.07C15.47 7.72 15.94 7.53 16.43 7.53C16.92 7.53 17.39 7.72 17.73 8.07L19.97 10.31L14.84 10.31C14.63 9.96 14.54 9.55 14.59 9.14C14.64 8.73 14.83 8.36 15.12 8.07ZM20.37 36.93L12.04 36.93C11.3 36.93 10.59 36.64 10.07 36.12C9.55 35.59 9.26 34.89 9.26 34.15L9.26 17.72L20.37 17.72L20.37 36.93ZM20.37 15.87L8.45 15.87C8.21 15.87 7.97 15.77 7.8 15.6C7.62 15.42 7.53 15.19 7.53 14.94L7.53 13.09C7.53 12.84 7.62 12.61 7.8 12.43C7.97 12.26 8.21 12.16 8.45 12.16L20.37 12.16L20.37 15.87ZM26.73 8.07C27.05 7.75 27.47 7.56 27.92 7.53C28.37 7.5 28.81 7.64 29.16 7.91C29.52 8.19 29.76 8.58 29.85 9.02C29.94 9.46 29.86 9.92 29.64 10.31L24.49 10.31L26.73 8.07ZM35.19 34.15C35.19 34.89 34.9 35.59 34.38 36.12C33.86 36.64 33.15 36.93 32.41 36.93L24.08 36.93L24.08 17.72L35.19 17.72L35.19 34.15ZM36.93 14.94C36.93 15.19 36.84 15.42 36.66 15.6C36.49 15.77 36.25 15.87 36.01 15.87L24.08 15.87L24.08 12.16L36.01 12.16C36.25 12.16 36.49 12.26 36.66 12.43C36.84 12.61 36.93 12.84 36.93 13.09L36.93 14.94Z" fill="#704174" fill-opacity="1.000000" fill-rule="evenodd"/>
	</g>
</svg>
