<svg width="239.362671" height="78.780273" viewBox="0 0 239.363 78.7803" fill="none" xmlns="http://www.w3.org/2000/svg" xmlns:xlink="http://www.w3.org/1999/xlink">
	<desc>
			Created with Pixso.
	</desc>
	<defs/>
	<path id="Форма 2" d="M129.66 64.87C126.93 62.52 124.29 60.01 121.75 57.34C119.27 54.61 116.95 51.82 114.8 48.96C112.7 46.1 110.76 43.21 108.98 40.29C107.27 37.31 105.81 34.38 104.6 31.53C102.44 33.88 100.28 36.26 98.12 38.67C96.03 41.02 94.16 43.4 92.5 45.82C90.85 48.16 89.52 50.55 88.5 52.96C87.42 55.31 86.88 57.66 86.88 60.01C86.88 62.8 87.36 65.22 88.31 67.25C89.2 69.22 90.41 70.84 91.93 72.11C93.46 73.38 95.2 74.3 97.17 74.87C99.14 75.44 101.17 75.73 103.27 75.73C107.46 75.73 111.91 74.74 116.61 72.77C121.3 70.81 125.66 68.17 129.66 64.87ZM117.84 8.38C117.84 6.16 117.34 4.57 116.32 3.62C115.37 2.6 114.32 2.09 113.18 2.09C112.22 2.09 111.21 2.41 110.13 3.04C109.11 3.68 108.16 4.6 107.27 5.81C106.44 6.95 105.75 8.35 105.17 10C104.6 11.65 104.32 13.46 104.32 15.43C104.32 19.05 104.98 22.89 106.32 26.95C107.9 25.3 109.4 23.68 110.79 22.1C112.19 20.51 113.4 18.95 114.41 17.43C115.49 15.84 116.32 14.32 116.89 12.86C117.53 11.33 117.84 9.84 117.84 8.38ZM154.52 77.92C154.52 78.11 154.39 78.3 154.14 78.49C153.88 78.68 153.5 78.78 152.99 78.78C149.18 77.57 145.44 75.89 141.75 73.73C138.07 71.5 134.48 68.93 130.99 66.01C128.58 67.85 126.07 69.54 123.46 71.06C120.86 72.58 118.19 73.89 115.46 74.96C112.79 76.04 110.1 76.87 107.37 77.44C104.7 78.01 102.13 78.3 99.65 78.3C97.24 78.3 94.95 77.95 92.79 77.25C90.63 76.62 88.76 75.63 87.17 74.3C85.58 72.9 84.34 71.19 83.45 69.15C82.5 67.12 82.03 64.74 82.03 62.01C82.03 59.09 82.69 56.23 84.03 53.44C85.36 50.58 87.07 47.78 89.17 45.05C91.27 42.32 93.58 39.66 96.12 37.05C98.73 34.45 101.27 31.91 103.75 29.43C101.9 24.48 100.98 20 100.98 16C100.98 13.65 101.4 11.49 102.22 9.52C103.11 7.55 104.22 5.87 105.56 4.47C106.89 3.08 108.35 2 109.94 1.23C111.59 0.41 113.14 0 114.6 0C116.32 0 117.88 0.57 119.27 1.71C120.67 2.79 121.37 4.6 121.37 7.14C121.37 8.73 120.96 10.38 120.13 12.09C119.37 13.81 118.32 15.59 116.99 17.43C115.72 19.21 114.19 21.08 112.41 23.05C110.7 24.95 108.89 26.92 106.98 28.95C109.08 34.73 112.19 40.61 116.32 46.58C120.51 52.48 125.59 58.01 131.56 63.15C134.8 60.23 137.4 57.02 139.37 53.53C141.34 50.04 142.33 46.39 142.33 42.58C142.33 41.31 142.14 40.04 141.75 38.77C141.44 37.43 140.77 36.04 139.75 34.57C139.75 34.45 139.94 34.32 140.33 34.19C140.71 34 141.06 33.91 141.37 33.91C142.26 33.91 142.96 34.23 143.47 34.86C144.04 35.43 144.45 36.13 144.71 36.96C145.02 37.78 145.22 38.64 145.28 39.53C145.41 40.35 145.47 41.02 145.47 41.53C145.47 45.72 144.29 49.78 141.94 53.72C139.66 57.6 136.67 61.15 132.99 64.39C139.15 69.66 146.1 73.95 153.85 77.25C154.3 77.51 154.52 77.73 154.52 77.92Z" fill="#FFA55C" fill-opacity="1.000000" fill-rule="nonzero"/>
	<path id="Форма 2" d="M18.22 43.91C18.22 41.93 18.09 40.28 17.84 38.97C17.61 37.66 17.29 37 16.87 37C16.62 37 16.38 37.19 16.16 37.58C15.93 37.93 15.74 38.44 15.58 39.11C15.45 39.75 15.34 40.52 15.24 41.42C15.18 42.28 15.15 43.22 15.15 44.25C15.15 46.07 15.28 48.04 15.53 50.15C15.79 52.23 16.24 54.25 16.87 56.2C17.32 54.15 17.66 52.06 17.88 49.91C18.11 47.74 18.22 45.74 18.22 43.91ZM38.33 22.12C38.33 22.28 38.27 22.41 38.14 22.5C38.01 22.6 37.85 22.71 37.66 22.84C36.7 23.42 35.91 24.22 35.31 25.24C34.7 26.26 34.2 27.38 33.82 28.6C33.47 29.82 33.23 31.06 33.1 32.34C32.97 33.59 32.91 34.74 32.91 35.8C32.91 36.54 32.94 37.45 33 38.54C33.1 39.59 33.2 40.76 33.29 42.04C33.42 43.32 33.52 44.68 33.58 46.12C33.68 47.53 33.72 48.97 33.72 50.44C33.72 52.52 33.59 54.54 33.34 56.49C33.12 58.44 32.65 60.18 31.95 61.72C31.28 63.26 30.33 64.49 29.12 65.42C27.9 66.34 26.32 66.81 24.36 66.81C23.47 66.81 22.62 66.63 21.82 66.28C21.05 65.96 20.33 65.5 19.66 64.89C19.02 64.28 18.43 63.58 17.88 62.78C17.37 61.98 16.91 61.1 16.49 60.14C16.08 61.26 15.58 62.3 15 63.26C14.46 64.22 13.85 65.05 13.18 65.75C12.51 66.46 11.77 67 10.97 67.38C10.17 67.77 9.32 67.96 8.43 67.96C7.05 67.96 5.88 67.61 4.92 66.9C4 66.2 3.23 65.27 2.62 64.12C2.01 63 1.53 61.72 1.18 60.28C0.86 58.81 0.62 57.32 0.46 55.82C0.3 54.28 0.19 52.79 0.12 51.35C0.09 49.88 0.06 48.58 0.03 47.46C-0.04 45.45 0 43.54 0.12 41.75C0.28 39.93 0.46 38.3 0.65 36.86C0.84 35.38 1.04 34.12 1.23 33.06C1.42 32.01 1.55 31.22 1.61 30.71C1.64 30.52 1.83 30.39 2.19 30.33C2.57 30.26 2.91 30.23 3.19 30.23C3.42 30.23 3.61 30.26 3.77 30.33C3.93 30.36 4.01 30.46 4.01 30.62C4.01 30.81 3.93 31.14 3.77 31.62C3.61 32.07 3.37 32.94 3.05 34.22C2.92 34.79 2.78 35.62 2.62 36.71C2.49 37.77 2.36 38.97 2.23 40.31C2.14 41.66 2.06 43.1 2 44.63C1.93 46.14 1.9 47.61 1.9 49.05C1.9 50.17 1.95 51.4 2.04 52.74C2.14 54.06 2.3 55.37 2.52 56.68C2.75 57.96 3.05 59.21 3.44 60.42C3.82 61.64 4.28 62.71 4.83 63.64C5.4 64.57 6.07 65.3 6.84 65.85C7.61 66.42 8.51 66.71 9.53 66.71C10.3 66.71 11 66.52 11.64 66.14C12.28 65.75 12.88 65.21 13.42 64.5C13.96 63.83 14.44 63.03 14.86 62.1C15.31 61.18 15.71 60.17 16.06 59.08C15.32 57.06 14.78 54.92 14.43 52.65C14.08 50.38 13.9 48.28 13.9 46.36C13.9 44.95 13.95 43.56 14.04 42.18C14.17 40.81 14.35 39.58 14.57 38.49C14.8 37.4 15.08 36.52 15.44 35.85C15.79 35.18 16.2 34.84 16.68 34.84C17.07 34.84 17.4 35.08 17.69 35.56C18.01 36.04 18.27 36.7 18.46 37.53C18.68 38.36 18.84 39.35 18.94 40.5C19.07 41.62 19.13 42.84 19.13 44.15C19.13 46.26 18.99 48.49 18.7 50.82C18.41 53.13 17.96 55.38 17.36 57.59C17.77 58.71 18.25 59.75 18.79 60.71C19.34 61.64 19.95 62.46 20.62 63.16C21.32 63.86 22.09 64.41 22.92 64.79C23.79 65.21 24.73 65.42 25.76 65.42C27.16 65.42 28.32 65.06 29.21 64.36C30.11 63.69 30.81 62.76 31.32 61.58C31.84 60.36 32.19 58.97 32.38 57.4C32.57 55.8 32.67 54.09 32.67 52.26C32.67 50.63 32.6 48.95 32.48 47.22C32.38 45.5 32.27 43.78 32.14 42.09C32.01 40.36 31.88 38.7 31.76 37.1C31.66 35.46 31.61 33.96 31.61 32.58C31.61 31.59 31.76 30.44 32.04 29.13C32.36 27.82 32.78 26.58 33.29 25.43C33.84 24.25 34.44 23.26 35.12 22.46C35.82 21.62 36.56 21.21 37.32 21.21C37.55 21.21 37.77 21.32 38 21.54C38.22 21.74 38.33 21.93 38.33 22.12Z" fill="#1F1711" fill-opacity="1.000000" fill-rule="nonzero"/>
	<path id="Форма 2" d="M53.32 53.99C53.32 53.51 53.24 53.13 53.08 52.84C52.92 52.52 52.66 52.36 52.31 52.36C51.77 52.36 51.35 52.63 51.06 53.18C50.77 53.69 50.65 54.34 50.68 55.14C50.77 56.84 51.08 58.26 51.59 59.42C52.13 58.68 52.55 57.85 52.84 56.92C53.16 55.99 53.32 55.02 53.32 53.99ZM66.28 53.94C66.05 54.42 65.81 54.92 65.56 55.43C65.3 55.91 65.01 56.39 64.69 56.87C63.06 59.3 61.41 61.11 59.75 62.3C58.09 63.48 56.53 64.07 55.09 64.07C53.27 64.07 51.88 63.21 50.92 61.48C49.8 62.6 48.53 63.45 47.13 64.02C45.75 64.6 44.39 64.89 43.05 64.89C42.25 64.89 41.48 64.78 40.74 64.55C40.04 64.33 39.43 63.99 38.92 63.54C38.37 63.06 37.94 62.47 37.62 61.77C37.3 61.03 37.14 60.18 37.14 59.22C37.14 58.07 37.41 56.9 37.96 55.72C38.47 54.5 39.19 53.42 40.12 52.46C41.08 51.46 42.2 50.65 43.48 50.01C44.76 49.37 46.15 49.05 47.65 49.05C48.87 49.05 49.81 49.22 50.49 49.58C51.16 49.9 51.49 50.2 51.49 50.49C51.49 50.62 51.43 50.71 51.3 50.78C51.17 50.84 51.06 50.87 50.97 50.87C50.93 50.84 50.9 50.82 50.87 50.82L50.82 50.82C50.44 50.47 50.01 50.2 49.53 50.01C49.05 49.78 48.34 49.67 47.41 49.67C46.17 49.67 45.03 49.94 44.01 50.49C43.01 51 42.17 51.69 41.46 52.55C40.76 53.38 40.21 54.31 39.83 55.34C39.45 56.36 39.25 57.37 39.25 58.36C39.25 60.28 39.7 61.67 40.6 62.54C41.49 63.4 42.61 63.83 43.96 63.83C45.05 63.83 46.18 63.56 47.37 63.02C48.55 62.47 49.61 61.7 50.53 60.71C50.02 59.56 49.77 58.06 49.77 56.2C49.77 54.98 49.99 53.93 50.44 53.03C50.89 52.14 51.53 51.69 52.36 51.69C53.51 51.69 54.09 52.36 54.09 53.7C54.09 55.05 53.89 56.26 53.51 57.35C53.13 58.41 52.61 59.37 51.97 60.23C52.87 61.9 54.12 62.73 55.72 62.73C56.93 62.73 58.23 62.22 59.61 61.19C61.01 60.17 62.39 58.68 63.73 56.73C64.05 56.25 64.34 55.75 64.6 55.24C64.85 54.73 65.11 54.22 65.37 53.7L66.28 53.94L66.28 53.94Z" fill="#1F1711" fill-opacity="1.000000" fill-rule="nonzero"/>
	<path id="Форма 2" d="M72.95 32.49C72.95 30.66 72.64 29.21 72.03 28.12C71.46 27 70.48 26.44 69.11 26.44C68.63 26.44 68.18 26.6 67.76 26.92C67.38 27.21 67.04 27.61 66.75 28.12C66.47 28.63 66.24 29.22 66.08 29.9C65.92 30.57 65.84 31.29 65.84 32.06C65.84 34.17 65.86 36.09 65.89 37.82C65.92 39.54 65.95 41.18 65.99 42.71C66.05 44.25 66.11 45.74 66.18 47.18C66.24 48.62 66.31 50.09 66.37 51.59C67.3 50.34 68.16 48.92 68.96 47.32C69.76 45.69 70.45 44.02 71.03 42.33C71.63 40.6 72.1 38.89 72.42 37.19C72.77 35.5 72.95 33.93 72.95 32.49ZM90.32 53.94C90.1 54.42 89.86 54.92 89.6 55.43C89.38 55.94 89.09 56.42 88.74 56.87C86.98 59.37 84.98 61.34 82.74 62.78C80.5 64.18 78.27 64.89 76.07 64.89C74.69 64.89 73.38 64.57 72.13 63.93C70.88 63.32 69.78 62.33 68.82 60.95C68.69 60.79 68.63 60.65 68.63 60.52C68.63 60.23 68.82 60.09 69.2 60.09C69.23 60.09 69.35 60.12 69.54 60.18C69.79 60.18 70.08 60.28 70.4 60.47C70.75 60.63 71.25 60.71 71.89 60.71C72.88 60.71 73.81 60.54 74.67 60.18C75.54 59.83 76.27 59.38 76.88 58.84C77.52 58.26 78.02 57.62 78.37 56.92C78.72 56.18 78.9 55.43 78.9 54.66C78.9 53.7 78.64 52.87 78.13 52.17C77.65 51.46 76.82 51.11 75.63 51.11C74.42 51.11 73.3 51.54 72.27 52.41C71.25 53.24 70.32 54.26 69.49 55.48C68.69 56.66 68 57.93 67.43 59.27C66.85 60.58 66.42 61.74 66.13 62.73C65.97 63.27 65.83 63.61 65.7 63.74C65.57 63.86 65.43 63.93 65.27 63.93C64.91 63.93 64.75 63.59 64.79 62.92C64.79 62.63 64.8 62.28 64.83 61.86C64.87 61.45 64.9 61 64.93 60.52C64.93 60.04 64.95 59.56 64.98 59.08C65.01 58.57 65.03 58.1 65.03 57.69C65.03 56.25 64.99 54.6 64.93 52.74C64.87 50.86 64.79 48.92 64.69 46.94C64.59 44.92 64.51 42.92 64.45 40.94C64.39 38.95 64.35 37.13 64.35 35.46C64.35 34.15 64.45 32.89 64.64 31.67C64.83 30.42 65.14 29.34 65.55 28.41C65.97 27.45 66.5 26.7 67.14 26.15C67.78 25.58 68.53 25.29 69.39 25.29C70.29 25.29 71.04 25.45 71.65 25.77C72.29 26.06 72.8 26.49 73.19 27.06C73.57 27.61 73.84 28.28 74 29.08C74.19 29.85 74.29 30.7 74.29 31.62C74.29 33.22 74.07 34.98 73.62 36.9C73.17 38.79 72.58 40.7 71.84 42.62C71.11 44.54 70.26 46.39 69.3 48.18C68.37 49.94 67.41 51.48 66.42 52.79C66.48 53.75 66.51 54.74 66.51 55.77C66.55 56.79 66.59 57.88 66.66 59.03C67.46 57.3 68.34 55.82 69.3 54.57C69.71 54.02 70.18 53.5 70.69 52.98C71.23 52.44 71.79 51.96 72.37 51.54C72.98 51.13 73.62 50.79 74.29 50.54C74.99 50.28 75.73 50.15 76.5 50.15C77.71 50.15 78.77 50.46 79.67 51.06C80.56 51.67 81.01 52.65 81.01 53.99C81.01 55.27 80.69 56.36 80.05 57.26C79.44 58.15 78.67 58.9 77.75 59.51C76.82 60.09 75.83 60.52 74.77 60.81C73.71 61.1 72.75 61.27 71.89 61.34C71.83 61.34 71.79 61.35 71.79 61.38C71.79 61.45 71.84 61.54 71.94 61.67C72.58 62.41 73.3 62.94 74.1 63.26C74.9 63.58 75.73 63.74 76.59 63.74C77.65 63.74 78.72 63.54 79.81 63.16C80.9 62.74 81.94 62.22 82.93 61.58C83.92 60.9 84.83 60.15 85.67 59.32C86.53 58.46 87.23 57.59 87.78 56.73C88.1 56.25 88.39 55.75 88.64 55.24C88.9 54.73 89.15 54.22 89.41 53.7L90.32 53.94L90.32 53.94Z" fill="#1F1711" fill-opacity="1.000000" fill-rule="nonzero"/>
	<path id="Форма 2" d="M97.09 50.97C97.09 50.1 96.86 49.4 96.42 48.86C96 48.28 95.31 47.99 94.35 47.99C93.84 47.99 93.38 48.15 92.96 48.47C92.54 48.79 92.19 49.22 91.9 49.77C91.62 50.28 91.39 50.89 91.23 51.59C91.07 52.3 90.99 53.03 90.99 53.8C90.99 55.02 91.12 56.1 91.38 57.06C91.66 57.99 92.06 58.81 92.58 59.51C93.25 58.97 93.86 58.34 94.4 57.64C94.94 56.94 95.41 56.2 95.79 55.43C96.21 54.66 96.53 53.9 96.75 53.13C96.98 52.36 97.09 51.64 97.09 50.97ZM109.23 53.94C109.01 54.42 108.77 54.92 108.51 55.43C108.29 55.91 108 56.39 107.65 56.87C106.08 59.11 104.29 60.81 102.27 61.96C100.29 63.08 98.38 63.64 96.56 63.64C95.54 63.64 94.58 63.46 93.68 63.11C92.82 62.76 92.06 62.23 91.42 61.53C90.78 60.82 90.27 59.94 89.89 58.89C89.5 57.83 89.31 56.58 89.31 55.14C89.31 54.18 89.46 53.22 89.74 52.26C90.03 51.3 90.42 50.44 90.9 49.67C91.41 48.9 91.98 48.28 92.62 47.8C93.3 47.32 94 47.08 94.74 47.08C95.92 47.08 96.78 47.43 97.33 48.14C97.87 48.81 98.14 49.67 98.14 50.73C98.14 52.17 97.7 53.74 96.8 55.43C95.94 57.1 94.69 58.65 93.06 60.09C94.27 61.46 95.84 62.15 97.76 62.15C99.2 62.15 100.71 61.72 102.27 60.86C103.84 59.96 105.31 58.58 106.69 56.73C107.04 56.28 107.33 55.8 107.55 55.29C107.81 54.74 108.07 54.22 108.32 53.7L109.23 53.94L109.23 53.94Z" fill="#1F1711" fill-opacity="1.000000" fill-rule="nonzero"/>
	<path id="Форма 2" d="M150.82 41.85C149.63 41.85 148.5 41.98 147.41 42.23C146.35 42.49 145.41 42.79 144.58 43.14C143.78 43.5 143.12 43.86 142.61 44.25C142.13 44.63 141.89 44.97 141.89 45.26C141.89 45.64 142.34 45.83 143.23 45.83C144.77 45.83 146.23 45.46 147.6 44.73C149.01 43.99 150.27 43.03 151.39 41.85L150.82 41.85L150.82 41.85ZM164.79 49.05C164.79 50.62 164.34 52.31 163.44 54.14C162.58 55.96 161.38 57.77 159.84 59.56C158.31 61.35 156.48 63.08 154.37 64.74C152.26 66.41 149.99 67.88 147.55 69.16C145.12 70.44 142.56 71.45 139.87 72.18C137.19 72.95 134.5 73.34 131.81 73.34C131.36 73.34 130.87 73.32 130.32 73.29C129.81 73.26 129.33 73.18 128.88 73.05C128.43 72.95 128.05 72.78 127.73 72.52C127.41 72.3 127.25 71.98 127.25 71.56C127.25 70.98 127.54 70.42 128.11 69.88C128.69 69.37 129.43 68.89 130.32 68.44C131.22 67.99 132.19 67.59 133.25 67.24C134.31 66.89 135.31 66.58 136.27 66.33C137.27 66.07 138.13 65.86 138.87 65.7C139.6 65.58 140.1 65.51 140.35 65.51C140.55 65.51 140.69 65.56 140.79 65.66C140.88 65.75 140.93 65.85 140.93 65.94C140.93 66.1 140.85 66.18 140.69 66.18L140.07 66.18C139.23 66.18 138.18 66.34 136.9 66.66C135.62 66.98 134.37 67.38 133.15 67.86C131.94 68.34 130.9 68.87 130.03 69.45C129.17 70.06 128.74 70.62 128.74 71.13C128.74 71.48 128.85 71.75 129.07 71.94C129.33 72.17 129.63 72.34 129.99 72.47C130.34 72.6 130.71 72.68 131.09 72.71C131.47 72.78 131.81 72.81 132.1 72.81C134.37 72.81 136.69 72.42 139.06 71.66C141.46 70.89 143.78 69.86 146.02 68.58C148.29 67.34 150.42 65.88 152.4 64.22C154.42 62.58 156.18 60.89 157.68 59.13C159.19 57.34 160.37 55.56 161.23 53.8C162.1 52.01 162.53 50.34 162.53 48.81C162.53 46.92 161.75 45.35 160.18 44.1C158.64 42.82 156.1 42.09 152.55 41.9C151.11 43.24 149.52 44.33 147.79 45.16C146.1 45.99 144.37 46.41 142.61 46.41C141.36 46.41 140.74 46.1 140.74 45.5C140.74 45.11 140.99 44.68 141.51 44.2C142.05 43.69 142.79 43.21 143.71 42.76C144.67 42.31 145.81 41.94 147.12 41.66C148.43 41.34 149.87 41.18 151.44 41.18L152.02 41.18C153.07 39.93 153.92 38.57 154.56 37.1C155.2 35.59 155.52 34.12 155.52 32.68C155.52 31.72 155.35 30.81 154.99 29.94C154.67 29.05 154.13 28.28 153.36 27.64C152.63 27 151.65 26.49 150.43 26.1C149.25 25.72 147.81 25.53 146.11 25.53C144.96 25.53 143.36 25.69 141.31 26.01C139.3 26.33 137.11 26.82 134.74 27.5C132.4 28.14 130.02 28.95 127.59 29.94C125.15 30.94 122.95 32.09 120.96 33.4C118.98 34.71 117.36 36.2 116.11 37.86C114.87 39.53 114.24 41.37 114.24 43.38C114.24 43.64 114.19 43.86 114.1 44.06C114 44.22 113.91 44.3 113.81 44.3C113.68 44.3 113.59 44.17 113.52 43.91C113.43 43.62 113.38 43.16 113.38 42.52C113.67 40.44 114.51 38.55 115.92 36.86C117.33 35.16 119.07 33.66 121.15 32.34C123.2 31 125.46 29.85 127.92 28.89C130.39 27.93 132.82 27.14 135.22 26.54C137.65 25.9 139.91 25.43 141.99 25.14C144.1 24.82 145.83 24.66 147.17 24.66C149.12 24.66 150.77 24.86 152.11 25.24C153.49 25.59 154.61 26.09 155.47 26.73C156.34 27.34 156.96 28.07 157.35 28.94C157.73 29.8 157.92 30.71 157.92 31.67C157.92 33.24 157.49 34.87 156.63 36.57C155.79 38.23 154.66 39.78 153.22 41.22C155.27 41.32 157.03 41.59 158.5 42.04C159.97 42.46 161.17 43.02 162.1 43.72C163.03 44.39 163.7 45.19 164.11 46.12C164.56 47.02 164.79 47.99 164.79 49.05ZM139.35 61.67C139.35 62.12 139.31 62.44 139.25 62.63C139.19 62.82 139.01 62.92 138.72 62.92C138.08 62.98 137.76 62.34 137.76 61C137.73 56.58 137.68 52.55 137.62 48.9C137.59 45.26 137.54 42.1 137.47 39.45C137.44 36.76 137.41 34.63 137.38 33.06C137.35 31.5 137.33 30.6 137.33 30.38C137.33 30.12 137.41 29.94 137.57 29.85C137.73 29.75 137.92 29.67 138.15 29.61C138.4 29.61 138.59 29.69 138.72 29.85C138.88 30.01 138.96 30.2 138.96 30.42C138.96 32.98 138.98 35.62 139.01 38.34C139.04 41.03 139.07 43.72 139.11 46.41C139.17 49.1 139.22 51.74 139.25 54.33C139.31 56.92 139.35 59.37 139.35 61.67Z" fill="#1F1711" fill-opacity="1.000000" fill-rule="nonzero"/>
	<path id="Форма 2" d="M183.44 53.99C183.44 53.51 183.36 53.13 183.2 52.84C183.04 52.52 182.79 52.36 182.44 52.36C181.89 52.36 181.48 52.63 181.19 53.18C180.9 53.69 180.77 54.34 180.8 55.14C180.9 56.84 181.2 58.26 181.72 59.42C182.26 58.68 182.68 57.85 182.96 56.92C183.28 55.99 183.44 55.02 183.44 53.99ZM196.4 53.94C196.18 54.42 195.94 54.92 195.68 55.43C195.43 55.91 195.14 56.39 194.82 56.87C193.19 59.3 191.54 61.11 189.88 62.3C188.21 63.48 186.66 64.07 185.22 64.07C183.4 64.07 182 63.21 181.04 61.48C179.92 62.6 178.66 63.45 177.25 64.02C175.88 64.6 174.52 64.89 173.17 64.89C172.37 64.89 171.6 64.78 170.87 64.55C170.16 64.33 169.56 63.99 169.04 63.54C168.5 63.06 168.07 62.47 167.75 61.77C167.43 61.03 167.27 60.18 167.27 59.22C167.27 58.07 167.54 56.9 168.08 55.72C168.6 54.5 169.32 53.42 170.24 52.46C171.2 51.46 172.32 50.65 173.6 50.01C174.88 49.37 176.28 49.05 177.78 49.05C179 49.05 179.94 49.22 180.61 49.58C181.28 49.9 181.62 50.2 181.62 50.49C181.62 50.62 181.56 50.71 181.43 50.78C181.3 50.84 181.19 50.87 181.09 50.87C181.06 50.84 181.03 50.82 181 50.82L180.95 50.82C180.56 50.47 180.13 50.2 179.65 50.01C179.17 49.78 178.47 49.67 177.54 49.67C176.29 49.67 175.16 49.94 174.13 50.49C173.14 51 172.29 51.69 171.59 52.55C170.88 53.38 170.34 54.31 169.96 55.34C169.57 56.36 169.38 57.37 169.38 58.36C169.38 60.28 169.83 61.67 170.72 62.54C171.62 63.4 172.74 63.83 174.08 63.83C175.17 63.83 176.31 63.56 177.49 63.02C178.68 62.47 179.73 61.7 180.66 60.71C180.15 59.56 179.89 58.06 179.89 56.2C179.89 54.98 180.12 53.93 180.56 53.03C181.01 52.14 181.65 51.69 182.48 51.69C183.64 51.69 184.21 52.36 184.21 53.7C184.21 55.05 184.02 56.26 183.64 57.35C183.25 58.41 182.74 59.37 182.1 60.23C183 61.9 184.24 62.73 185.84 62.73C187.06 62.73 188.36 62.22 189.73 61.19C191.14 60.17 192.52 58.68 193.86 56.73C194.18 56.25 194.47 55.75 194.72 55.24C194.98 54.73 195.24 54.22 195.49 53.7L196.4 53.94L196.4 53.94Z" fill="#1F1711" fill-opacity="1.000000" fill-rule="nonzero"/>
	<path id="Форма 2" d="M203.07 32.49C203.07 30.66 202.77 29.21 202.16 28.12C201.58 27 200.61 26.44 199.23 26.44C198.75 26.44 198.3 26.6 197.89 26.92C197.5 27.21 197.17 27.61 196.88 28.12C196.59 28.63 196.37 29.22 196.21 29.9C196.05 30.57 195.97 31.29 195.97 32.06C195.97 34.17 195.98 36.09 196.02 37.82C196.05 39.54 196.08 41.18 196.11 42.71C196.18 44.25 196.24 45.74 196.3 47.18C196.37 48.62 196.43 50.09 196.5 51.59C197.42 50.34 198.29 48.92 199.09 47.32C199.89 45.69 200.58 44.02 201.15 42.33C201.76 40.6 202.22 38.89 202.54 37.19C202.9 35.5 203.07 33.93 203.07 32.49ZM220.45 53.94C220.22 54.42 219.98 54.92 219.73 55.43C219.5 55.94 219.22 56.42 218.86 56.87C217.1 59.37 215.1 61.34 212.86 62.78C210.62 64.18 208.4 64.89 206.19 64.89C204.82 64.89 203.5 64.57 202.26 63.93C201.01 63.32 199.9 62.33 198.94 60.95C198.82 60.79 198.75 60.65 198.75 60.52C198.75 60.23 198.94 60.09 199.33 60.09C199.36 60.09 199.47 60.12 199.66 60.18C199.92 60.18 200.21 60.28 200.53 60.47C200.88 60.63 201.38 60.71 202.02 60.71C203.01 60.71 203.94 60.54 204.8 60.18C205.66 59.83 206.4 59.38 207.01 58.84C207.65 58.26 208.14 57.62 208.5 56.92C208.85 56.18 209.02 55.43 209.02 54.66C209.02 53.7 208.77 52.87 208.26 52.17C207.78 51.46 206.94 51.11 205.76 51.11C204.54 51.11 203.42 51.54 202.4 52.41C201.38 53.24 200.45 54.26 199.62 55.48C198.82 56.66 198.13 57.93 197.55 59.27C196.98 60.58 196.54 61.74 196.26 62.73C196.1 63.27 195.95 63.61 195.82 63.74C195.7 63.86 195.55 63.93 195.39 63.93C195.04 63.93 194.88 63.59 194.91 62.92C194.91 62.63 194.93 62.28 194.96 61.86C194.99 61.45 195.02 61 195.06 60.52C195.06 60.04 195.07 59.56 195.1 59.08C195.14 58.57 195.15 58.1 195.15 57.69C195.15 56.25 195.12 54.6 195.06 52.74C194.99 50.86 194.91 48.92 194.82 46.94C194.72 44.92 194.64 42.92 194.58 40.94C194.51 38.95 194.48 37.13 194.48 35.46C194.48 34.15 194.58 32.89 194.77 31.67C194.96 30.42 195.26 29.34 195.68 28.41C196.1 27.45 196.62 26.7 197.26 26.15C197.9 25.58 198.66 25.29 199.52 25.29C200.42 25.29 201.17 25.45 201.78 25.77C202.42 26.06 202.93 26.49 203.31 27.06C203.7 27.61 203.97 28.28 204.13 29.08C204.32 29.85 204.42 30.7 204.42 31.62C204.42 33.22 204.19 34.98 203.74 36.9C203.3 38.79 202.7 40.7 201.97 42.62C201.23 44.54 200.38 46.39 199.42 48.18C198.5 49.94 197.54 51.48 196.54 52.79C196.61 53.75 196.64 54.74 196.64 55.77C196.67 56.79 196.72 57.88 196.78 59.03C197.58 57.3 198.46 55.82 199.42 54.57C199.84 54.02 200.3 53.5 200.82 52.98C201.36 52.44 201.92 51.96 202.5 51.54C203.1 51.13 203.74 50.79 204.42 50.54C205.12 50.28 205.86 50.15 206.62 50.15C207.84 50.15 208.9 50.46 209.79 51.06C210.69 51.67 211.14 52.65 211.14 53.99C211.14 55.27 210.82 56.36 210.18 57.26C209.57 58.15 208.8 58.9 207.87 59.51C206.94 60.09 205.95 60.52 204.9 60.81C203.84 61.1 202.88 61.27 202.02 61.34C201.95 61.34 201.92 61.35 201.92 61.38C201.92 61.45 201.97 61.54 202.06 61.67C202.7 62.41 203.42 62.94 204.22 63.26C205.02 63.58 205.86 63.74 206.72 63.74C207.78 63.74 208.85 63.54 209.94 63.16C211.02 62.74 212.06 62.22 213.06 61.58C214.05 60.9 214.96 60.15 215.79 59.32C216.66 58.46 217.36 57.59 217.9 56.73C218.22 56.25 218.51 55.75 218.77 55.24C219.02 54.73 219.28 54.22 219.54 53.7L220.45 53.94L220.45 53.94Z" fill="#1F1711" fill-opacity="1.000000" fill-rule="nonzero"/>
	<path id="Форма 2" d="M227.21 50.97C227.21 50.1 226.99 49.4 226.54 48.86C226.13 48.28 225.44 47.99 224.48 47.99C223.97 47.99 223.5 48.15 223.09 48.47C222.67 48.79 222.32 49.22 222.03 49.77C221.74 50.28 221.52 50.89 221.36 51.59C221.2 52.3 221.12 53.03 221.12 53.8C221.12 55.02 221.25 56.1 221.5 57.06C221.79 57.99 222.19 58.81 222.7 59.51C223.37 58.97 223.98 58.34 224.53 57.64C225.07 56.94 225.53 56.2 225.92 55.43C226.33 54.66 226.65 53.9 226.88 53.13C227.1 52.36 227.21 51.64 227.21 50.97ZM239.36 53.94C239.13 54.42 238.89 54.92 238.64 55.43C238.41 55.91 238.13 56.39 237.77 56.87C236.21 59.11 234.41 60.81 232.4 61.96C230.41 63.08 228.51 63.64 226.69 63.64C225.66 63.64 224.7 63.46 223.81 63.11C222.94 62.76 222.19 62.23 221.55 61.53C220.91 60.82 220.4 59.94 220.01 58.89C219.63 57.83 219.44 56.58 219.44 55.14C219.44 54.18 219.58 53.22 219.87 52.26C220.16 51.3 220.54 50.44 221.02 49.67C221.53 48.9 222.11 48.28 222.75 47.8C223.42 47.32 224.13 47.08 224.86 47.08C226.05 47.08 226.91 47.43 227.45 48.14C228 48.81 228.27 49.67 228.27 50.73C228.27 52.17 227.82 53.74 226.93 55.43C226.06 57.1 224.81 58.65 223.18 60.09C224.4 61.46 225.97 62.15 227.89 62.15C229.33 62.15 230.83 61.72 232.4 60.86C233.97 59.96 235.44 58.58 236.81 56.73C237.17 56.28 237.45 55.8 237.68 55.29C237.93 54.74 238.19 54.22 238.45 53.7L239.36 53.94L239.36 53.94Z" fill="#1F1711" fill-opacity="1.000000" fill-rule="nonzero"/>
</svg>
